<svg height="464pt" viewBox="0 0 464 464" width="464pt" xmlns="http://www.w3.org/2000/svg"><path d="m208 240c0-57.4375-46.5625-104-104-104s-104 46.5625-104 104c0 50.160156 81.175781 146.023438 104 172 22.824219-25.984375 104-121.863281 104-172zm-184 0c0-44.183594 35.816406-80 80-80s80 35.816406 80 80-35.816406 80-80 80c-44.164062-.046875-79.953125-35.835938-80-80zm0 0"/><path d="m168 240c0 35.347656-28.652344 64-64 64s-64-28.652344-64-64 28.652344-64 64-64 64 28.652344 64 64zm0 0"/><path d="m416 56c0 13.253906-10.746094 24-24 24s-24-10.746094-24-24 10.746094-24 24-24 24 10.746094 24 24zm0 0"/><path d="m448 56c0-30.929688-25.070312-56-56-56s-56 25.070312-56 56c0 23.703125 36.425781 65.160156 56 84.800781 19.574219-19.648437 56-61.121093 56-84.800781zm-96 0c0-22.089844 17.910156-40 40-40s40 17.910156 40 40-17.910156 40-40 40c-22.082031-.027344-39.972656-17.917969-40-40zm0 0"/><path d="m432 400h-192c-13.253906 0-24-10.746094-24-24s10.746094-24 24-24h176c26.507812 0 48-21.492188 48-48s-21.492188-48-48-48h-128c-17.671875 0-32-14.328125-32-32s14.328125-32 32-32h104v-16h-104c-26.507812 0-48 21.492188-48 48s21.492188 48 48 48h128c17.671875 0 32 14.328125 32 32s-14.328125 32-32 32h-176c-22.089844 0-40 17.910156-40 40s17.910156 40 40 40h192c8.835938 0 16 7.164062 16 16s-7.164062 16-16 16h-328v16h328c17.671875 0 32-14.328125 32-32s-14.328125-32-32-32zm0 0"/></svg>